<svg xmlns="http://www.w3.org/2000/svg" viewBox="0 0 256 256" width="256" height="256" role="img" aria-label="LinkedIn">
  <rect width="256" height="256" rx="60" fill="#0A66C2"/>
  <path fill="#ffffff" d="M100.28 195.7H62.2V78.4h38.08V195.7zM81.24 62.4c-12.19 0-22.09-9.9-22.09-22.09 0-12.19 9.9-21.91 22.09-21.91 12.15 0 22.08 9.72 22.08 21.91 0 12.19-9.93 22.09-22.08 22.09zM238.7 195.7h-38V138c0-13.75-.28-31.44-19.16-31.44-19.18 0-22.11 14.98-22.11 30.44V195.7h-38.02V78.4h36.5v16.02h.52c5.08-9.63 17.49-19.79 36-19.79 38.51 0 45.63 25.35 45.63 58.31V195.7z"/>
</svg>
