<svg xmlns="http://www.w3.org/2000/svg" viewBox="0 0 256 256" width="256" height="256" role="img" aria-label="TikTok">
  <rect width="256" height="256" rx="60" fill="#010101"/>
  <path d="M150 66c3 19 16 33 34 37v26c-12 0-24-4-34-10v48c0 32-26 58-58 55-27-3-46-27-44-54 2-25 24-45 49-43v27c-3-1-6-1-8 0-12 2-20 13-18 25 2 11 12 19 23 19 12 0 21-10 21-22V66z" fill="#25F4EE" transform="translate(-6,-6)"/>
  <path d="M150 66c3 19 16 33 34 37v26c-12 0-24-4-34-10v48c0 32-26 58-58 55-27-3-46-27-44-54 2-25 24-45 49-43v27c-3-1-6-1-8 0-12 2-20 13-18 25 2 11 12 19 23 19 12 0 21-10 21-22V66z" fill="#FE2C55" transform="translate(6,6)"/>
  <path d="M150 66c3 19 16 33 34 37v26c-12 0-24-4-34-10v48c0 32-26 58-58 55-27-3-46-27-44-54 2-25 24-45 49-43v27c-3-1-6-1-8 0-12 2-20 13-18 25 2 11 12 19 23 19 12 0 21-10 21-22V66z" fill="#ffffff"/>
</svg>
